<svg width="22" height="18" viewBox="0 0 22 18" fill="none" xmlns="http://www.w3.org/2000/svg">
<path d="M20.9 0H1.1C0.492594 0 0 0.559766 0 1.25V16.25C0 16.9402 0.492594 17.5 1.1 17.5H20.9C21.5074 17.5 22 16.9402 22 16.25V1.25C22 0.559766 21.5074 0 20.9 0ZM6.05 11.5578V12.1875C6.05 12.3602 5.92694 12.5 5.775 12.5H5.225C5.07306 12.5 4.95 12.3602 4.95 12.1875V11.5512C4.56191 11.5285 4.18447 11.3746 3.87166 11.1078C3.73759 10.9934 3.73072 10.7652 3.85206 10.6336L4.25597 10.1957C4.35119 10.0926 4.49281 10.0879 4.60419 10.1672C4.73722 10.2617 4.88812 10.3125 5.04487 10.3125H6.01116C6.23459 10.3125 6.41678 10.0813 6.41678 9.79727C6.41678 9.56484 6.29269 9.36016 6.11531 9.3L4.56844 8.77266C3.92941 8.55469 3.48288 7.85781 3.48288 7.07773C3.48288 6.11992 4.13772 5.3418 4.94966 5.31719V4.6875C4.94966 4.51484 5.07272 4.375 5.22466 4.375H5.77466C5.92659 4.375 6.04966 4.51484 6.04966 4.6875V5.32383C6.43775 5.34648 6.81519 5.5 7.128 5.76719C7.26206 5.88164 7.26894 6.10977 7.14759 6.24141L6.74369 6.6793C6.64847 6.78242 6.50684 6.78711 6.39547 6.70781C6.26244 6.61289 6.11153 6.5625 5.95478 6.5625H4.9885C4.76506 6.5625 4.58288 6.79375 4.58288 7.07773C4.58288 7.31016 4.70697 7.51484 4.88434 7.575L6.43122 8.10234C7.07025 8.32031 7.51678 9.01719 7.51678 9.79727C7.51678 10.7555 6.86194 11.5332 6.05 11.5578ZM14.3 10.9375C14.3 11.1102 14.1769 11.25 14.025 11.25H10.175C10.0231 11.25 9.9 11.1102 9.9 10.9375V10.3125C9.9 10.1398 10.0231 10 10.175 10H14.025C14.1769 10 14.3 10.1398 14.3 10.3125V10.9375ZM19.8 10.9375C19.8 11.1102 19.6769 11.25 19.525 11.25H16.775C16.6231 11.25 16.5 11.1102 16.5 10.9375V10.3125C16.5 10.1398 16.6231 10 16.775 10H19.525C19.6769 10 19.8 10.1398 19.8 10.3125V10.9375ZM19.8 7.1875C19.8 7.36016 19.6769 7.5 19.525 7.5H10.175C10.0231 7.5 9.9 7.36016 9.9 7.1875V6.5625C9.9 6.38984 10.0231 6.25 10.175 6.25H19.525C19.6769 6.25 19.8 6.38984 19.8 6.5625V7.1875Z" fill="#FD9215"/>
</svg>
