<svg width="19" height="17" viewBox="0 0 19 17" fill="none" xmlns="http://www.w3.org/2000/svg">
<path d="M19 4.25V15.1786C19 16.1842 18.2021 17 17.2188 17H1.78125C0.797852 17 0 16.1842 0 15.1786V4.25C0 3.24442 0.797852 2.42857 1.78125 2.42857H5.04688L5.50332 1.18013C5.76309 0.470536 6.42734 0 7.16953 0H11.8268C12.5689 0 13.2332 0.470536 13.493 1.18013L13.9531 2.42857H17.2188C18.2021 2.42857 19 3.24442 19 4.25ZM13.9531 9.71429C13.9531 7.20223 11.9566 5.16071 9.5 5.16071C7.04336 5.16071 5.04688 7.20223 5.04688 9.71429C5.04688 12.2263 7.04336 14.2679 9.5 14.2679C11.9566 14.2679 13.9531 12.2263 13.9531 9.71429ZM12.7656 9.71429C12.7656 11.5547 11.2998 13.0536 9.5 13.0536C7.7002 13.0536 6.23438 11.5547 6.23438 9.71429C6.23438 7.87388 7.7002 6.375 9.5 6.375C11.2998 6.375 12.7656 7.87388 12.7656 9.71429Z" fill="#0073B4"/>
</svg>
