<svg width="22" height="23" viewBox="0 0 22 23" fill="none" xmlns="http://www.w3.org/2000/svg">
<path d="M21.4107 21.125H20.4286V1.53125C20.4286 0.961699 19.9009 0.5 19.25 0.5H2.75C2.09908 0.5 1.57143 0.961699 1.57143 1.53125V21.125H0.589286C0.263853 21.125 0 21.3559 0 21.6406V22.5H22V21.6406C22 21.3559 21.7361 21.125 21.4107 21.125ZM6.28571 3.76562C6.28571 3.48087 6.54957 3.25 6.875 3.25H8.83929C9.16472 3.25 9.42857 3.48087 9.42857 3.76562V5.48438C9.42857 5.76913 9.16472 6 8.83929 6H6.875C6.54957 6 6.28571 5.76913 6.28571 5.48438V3.76562ZM6.28571 7.89062C6.28571 7.60587 6.54957 7.375 6.875 7.375H8.83929C9.16472 7.375 9.42857 7.60587 9.42857 7.89062V9.60938C9.42857 9.89413 9.16472 10.125 8.83929 10.125H6.875C6.54957 10.125 6.28571 9.89413 6.28571 9.60938V7.89062ZM8.83929 14.25H6.875C6.54957 14.25 6.28571 14.0191 6.28571 13.7344V12.0156C6.28571 11.7309 6.54957 11.5 6.875 11.5H8.83929C9.16472 11.5 9.42857 11.7309 9.42857 12.0156V13.7344C9.42857 14.0191 9.16472 14.25 8.83929 14.25ZM12.5714 21.125H9.42857V17.5156C9.42857 17.2309 9.69242 17 10.0179 17H11.9821C12.3076 17 12.5714 17.2309 12.5714 17.5156V21.125ZM15.7143 13.7344C15.7143 14.0191 15.4504 14.25 15.125 14.25H13.1607C12.8353 14.25 12.5714 14.0191 12.5714 13.7344V12.0156C12.5714 11.7309 12.8353 11.5 13.1607 11.5H15.125C15.4504 11.5 15.7143 11.7309 15.7143 12.0156V13.7344ZM15.7143 9.60938C15.7143 9.89413 15.4504 10.125 15.125 10.125H13.1607C12.8353 10.125 12.5714 9.89413 12.5714 9.60938V7.89062C12.5714 7.60587 12.8353 7.375 13.1607 7.375H15.125C15.4504 7.375 15.7143 7.60587 15.7143 7.89062V9.60938ZM15.7143 5.48438C15.7143 5.76913 15.4504 6 15.125 6H13.1607C12.8353 6 12.5714 5.76913 12.5714 5.48438V3.76562C12.5714 3.48087 12.8353 3.25 13.1607 3.25H15.125C15.4504 3.25 15.7143 3.48087 15.7143 3.76562V5.48438Z" fill="#FD9215"/>
</svg>
