<svg width="22" height="26" viewBox="0 0 22 26" fill="none" xmlns="http://www.w3.org/2000/svg">
<path d="M0 23.1562C0 24.4502 1.0498 25.5 2.34375 25.5H19.5312C20.8252 25.5 21.875 24.4502 21.875 23.1562V9.875H0V23.1562ZM15.625 13.5859C15.625 13.2637 15.8887 13 16.2109 13H18.1641C18.4863 13 18.75 13.2637 18.75 13.5859V15.5391C18.75 15.8613 18.4863 16.125 18.1641 16.125H16.2109C15.8887 16.125 15.625 15.8613 15.625 15.5391V13.5859ZM15.625 19.8359C15.625 19.5137 15.8887 19.25 16.2109 19.25H18.1641C18.4863 19.25 18.75 19.5137 18.75 19.8359V21.7891C18.75 22.1113 18.4863 22.375 18.1641 22.375H16.2109C15.8887 22.375 15.625 22.1113 15.625 21.7891V19.8359ZM9.375 13.5859C9.375 13.2637 9.63867 13 9.96094 13H11.9141C12.2363 13 12.5 13.2637 12.5 13.5859V15.5391C12.5 15.8613 12.2363 16.125 11.9141 16.125H9.96094C9.63867 16.125 9.375 15.8613 9.375 15.5391V13.5859ZM9.375 19.8359C9.375 19.5137 9.63867 19.25 9.96094 19.25H11.9141C12.2363 19.25 12.5 19.5137 12.5 19.8359V21.7891C12.5 22.1113 12.2363 22.375 11.9141 22.375H9.96094C9.63867 22.375 9.375 22.1113 9.375 21.7891V19.8359ZM3.125 13.5859C3.125 13.2637 3.38867 13 3.71094 13H5.66406C5.98633 13 6.25 13.2637 6.25 13.5859V15.5391C6.25 15.8613 5.98633 16.125 5.66406 16.125H3.71094C3.38867 16.125 3.125 15.8613 3.125 15.5391V13.5859ZM3.125 19.8359C3.125 19.5137 3.38867 19.25 3.71094 19.25H5.66406C5.98633 19.25 6.25 19.5137 6.25 19.8359V21.7891C6.25 22.1113 5.98633 22.375 5.66406 22.375H3.71094C3.38867 22.375 3.125 22.1113 3.125 21.7891V19.8359ZM19.5312 3.625H17.1875V1.28125C17.1875 0.851562 16.8359 0.5 16.4062 0.5H14.8438C14.4141 0.5 14.0625 0.851562 14.0625 1.28125V3.625H7.8125V1.28125C7.8125 0.851562 7.46094 0.5 7.03125 0.5H5.46875C5.03906 0.5 4.6875 0.851562 4.6875 1.28125V3.625H2.34375C1.0498 3.625 0 4.6748 0 5.96875V8.3125H21.875V5.96875C21.875 4.6748 20.8252 3.625 19.5312 3.625Z" fill="#FD9215"/>
</svg>
