<svg width="19" height="13" viewBox="0 0 19 13" fill="none" xmlns="http://www.w3.org/2000/svg">
<path d="M18.7341 6.09064L15.2478 0.723599C15.1032 0.501015 14.9073 0.318509 14.6775 0.19228C14.4477 0.0660517 14.1911 4.23126e-06 13.9304 0H5.0696C4.80894 8.56824e-07 4.55232 0.066047 4.3225 0.192276C4.09269 0.318505 3.89679 0.501013 3.7522 0.723599L0.265934 6.09064C0.0925287 6.35756 -3.81756e-06 6.67119 1.18127e-10 6.992L1.18127e-10 11.375C1.18127e-10 12.2725 0.708871 13 1.58333 13H17.4167C18.2911 13 19 12.2725 19 11.375V6.992C19 6.67119 18.9075 6.35756 18.7341 6.09064ZM5.35206 2.16667H13.648L16.4628 6.5H12.4028L11.3472 8.66667H7.65278L6.59722 6.5H2.53723L5.35206 2.16667Z" fill="#0073B4"/>
</svg>
