<svg width="17" height="20" viewBox="0 0 17 20" fill="none" xmlns="http://www.w3.org/2000/svg">
<path d="M16.5446 18.75H15.7857V0.9375C15.7857 0.419727 15.378 0 14.875 0H2.125C1.62202 0 1.21429 0.419727 1.21429 0.9375V18.75H0.455357C0.203886 18.75 0 18.9599 0 19.2188V20H17V19.2188C17 18.9599 16.7961 18.75 16.5446 18.75ZM4.85714 2.96875C4.85714 2.70988 5.06103 2.5 5.3125 2.5H6.83036C7.08183 2.5 7.28571 2.70988 7.28571 2.96875V4.53125C7.28571 4.79012 7.08183 5 6.83036 5H5.3125C5.06103 5 4.85714 4.79012 4.85714 4.53125V2.96875ZM4.85714 6.71875C4.85714 6.45988 5.06103 6.25 5.3125 6.25H6.83036C7.08183 6.25 7.28571 6.45988 7.28571 6.71875V8.28125C7.28571 8.54012 7.08183 8.75 6.83036 8.75H5.3125C5.06103 8.75 4.85714 8.54012 4.85714 8.28125V6.71875ZM6.83036 12.5H5.3125C5.06103 12.5 4.85714 12.2901 4.85714 12.0312V10.4688C4.85714 10.2099 5.06103 10 5.3125 10H6.83036C7.08183 10 7.28571 10.2099 7.28571 10.4688V12.0312C7.28571 12.2901 7.08183 12.5 6.83036 12.5ZM9.71429 18.75H7.28571V15.4688C7.28571 15.2099 7.4896 15 7.74107 15H9.25893C9.5104 15 9.71429 15.2099 9.71429 15.4688V18.75ZM12.1429 12.0312C12.1429 12.2901 11.939 12.5 11.6875 12.5H10.1696C9.91817 12.5 9.71429 12.2901 9.71429 12.0312V10.4688C9.71429 10.2099 9.91817 10 10.1696 10H11.6875C11.939 10 12.1429 10.2099 12.1429 10.4688V12.0312ZM12.1429 8.28125C12.1429 8.54012 11.939 8.75 11.6875 8.75H10.1696C9.91817 8.75 9.71429 8.54012 9.71429 8.28125V6.71875C9.71429 6.45988 9.91817 6.25 10.1696 6.25H11.6875C11.939 6.25 12.1429 6.45988 12.1429 6.71875V8.28125ZM12.1429 4.53125C12.1429 4.79012 11.939 5 11.6875 5H10.1696C9.91817 5 9.71429 4.79012 9.71429 4.53125V2.96875C9.71429 2.70988 9.91817 2.5 10.1696 2.5H11.6875C11.939 2.5 12.1429 2.70988 12.1429 2.96875V4.53125Z" fill="#FD9215"/>
</svg>
