<svg width="22" height="19" viewBox="0 0 22 19" fill="none" xmlns="http://www.w3.org/2000/svg">
<path d="M13.75 12.8929C13.75 13.2678 13.4423 13.5714 13.0625 13.5714H8.9375C8.55766 13.5714 8.25 13.2678 8.25 12.8929V10.8571H0V16.9643C0 18.05 0.9625 19 2.0625 19H19.9375C21.0375 19 22 18.05 22 16.9643V10.8571H13.75V12.8929ZM19.9375 4.07143H16.5V2.03571C16.5 0.95 15.5375 0 14.4375 0H7.5625C6.4625 0 5.5 0.95 5.5 2.03571V4.07143H2.0625C0.9625 4.07143 0 5.02143 0 6.10714V9.5H22V6.10714C22 5.02143 21.0375 4.07143 19.9375 4.07143ZM13.75 4.07143H8.25V2.71429H13.75V4.07143Z" fill="#FD9215"/>
</svg>
