<svg width="23" height="17" viewBox="0 0 23 17" fill="none" xmlns="http://www.w3.org/2000/svg">
<path d="M3.45 7.15776C4.71859 7.15776 5.75 6.12635 5.75 4.85776C5.75 3.58916 4.71859 2.55776 3.45 2.55776C2.18141 2.55776 1.15 3.58916 1.15 4.85776C1.15 6.12635 2.18141 7.15776 3.45 7.15776ZM19.55 7.15776C20.8186 7.15776 21.85 6.12635 21.85 4.85776C21.85 3.58916 20.8186 2.55776 19.55 2.55776C18.2814 2.55776 17.25 3.58916 17.25 4.85776C17.25 6.12635 18.2814 7.15776 19.55 7.15776ZM20.7 8.30776H18.4C17.7675 8.30776 17.1961 8.56291 16.7792 8.9762C18.2275 9.77042 19.2553 11.2043 19.4781 12.9078H21.85C22.4861 12.9078 23 12.3939 23 11.7578V10.6078C23 9.33916 21.9686 8.30776 20.7 8.30776ZM11.5 8.30776C13.7245 8.30776 15.525 6.50729 15.525 4.28276C15.525 2.05822 13.7245 0.257755 11.5 0.257755C9.27547 0.257755 7.475 2.05822 7.475 4.28276C7.475 6.50729 9.27547 8.30776 11.5 8.30776ZM14.26 9.45776H13.9617C13.2142 9.81713 12.3841 10.0328 11.5 10.0328C10.6159 10.0328 9.78937 9.81713 9.03828 9.45776H8.74C6.45437 9.45776 4.6 11.3121 4.6 13.5978V14.6328C4.6 15.5851 5.37266 16.3578 6.325 16.3578H16.675C17.6273 16.3578 18.4 15.5851 18.4 14.6328V13.5978C18.4 11.3121 16.5456 9.45776 14.26 9.45776ZM6.22078 8.9762C5.80391 8.56291 5.2325 8.30776 4.6 8.30776H2.3C1.03141 8.30776 0 9.33916 0 10.6078V11.7578C0 12.3939 0.513906 12.9078 1.15 12.9078H3.51828C3.74469 11.2043 4.7725 9.77042 6.22078 8.9762Z" fill="#FD9215"/>
</svg>
