<svg width="18" height="21" viewBox="0 0 18 21" fill="none" xmlns="http://www.w3.org/2000/svg">
<path d="M9 10.5C11.8406 10.5 14.1429 8.1498 14.1429 5.25C14.1429 2.3502 11.8406 0 9 0C6.15938 0 3.85714 2.3502 3.85714 5.25C3.85714 8.1498 6.15938 10.5 9 10.5ZM12.8491 11.8371L10.9286 19.6875L9.64286 14.1094L10.9286 11.8125H7.07143L8.35714 14.1094L7.07143 19.6875L5.15089 11.8371C2.28616 11.9766 0 14.3678 0 17.325V19.0312C0 20.1182 0.863839 21 1.92857 21H16.0714C17.1362 21 18 20.1182 18 19.0312V17.325C18 14.3678 15.7138 11.9766 12.8491 11.8371Z" fill="#FD9215"/>
</svg>
