<svg width="25" height="26" viewBox="0 0 25 26" fill="none" xmlns="http://www.w3.org/2000/svg">
<path d="M0 20.29V22.375C0 24.0986 4.19922 25.5 9.375 25.5C14.5508 25.5 18.75 24.0986 18.75 22.375V20.29C16.7334 21.7109 13.0469 22.375 9.375 22.375C5.70312 22.375 2.0166 21.7109 0 20.29ZM15.625 6.75C20.8008 6.75 25 5.34863 25 3.625C25 1.90137 20.8008 0.5 15.625 0.5C10.4492 0.5 6.25 1.90137 6.25 3.625C6.25 5.34863 10.4492 6.75 15.625 6.75ZM0 15.168V17.6875C0 19.4111 4.19922 20.8125 9.375 20.8125C14.5508 20.8125 18.75 19.4111 18.75 17.6875V15.168C16.7334 16.8281 13.042 17.6875 9.375 17.6875C5.70801 17.6875 2.0166 16.8281 0 15.168ZM20.3125 15.7051C23.1104 15.1631 25 14.1572 25 13V10.915C23.8672 11.7158 22.2021 12.2627 20.3125 12.5996V15.7051ZM9.375 8.3125C4.19922 8.3125 0 10.0605 0 12.2188C0 14.377 4.19922 16.125 9.375 16.125C14.5508 16.125 18.75 14.377 18.75 12.2188C18.75 10.0605 14.5508 8.3125 9.375 8.3125ZM20.083 11.0615C23.0127 10.5342 25 9.49902 25 8.3125V6.22754C23.2666 7.45312 20.2881 8.11231 17.1533 8.26856C18.5938 8.9668 19.6533 9.9043 20.083 11.0615Z" fill="#FD9215"/>
</svg>
